<svg width="196" height="43" viewBox="0 0 196 43" fill="none" xmlns="http://www.w3.org/2000/svg">
<path d="M 38.4 12.2 C 37.4 9.8 36 7.7 34.1 5.9 C 32.3 4 30.2 2.6 27.8 1.6 C 25.3 0.5 22.7 0 20 0 C 17.3 0 14.7 0.5 12.2 1.6 C 9.8 2.6 7.7 4 5.9 5.9 C 4 7.7 2.6 9.8 1.6 12.2 C 0.5 14.7 0 17.3 0 20 C 0 22.7 0.5 25.3 1.6 27.8 C 2.6 30.2 4 32.3 5.9 34.1 C 7.7 36 9.8 37.4 12.2 38.4 C 14.7 39.5 17.3 40 20 40 C 22.7 40 25.3 39.5 27.8 38.4 C 30.2 37.4 32.3 36 34.1 34.1 C 36 32.3 37.4 30.2 38.4 27.8 C 39.5 25.3 40 22.7 40 20 C 40 17.3 39.5 14.7 38.4 12.2 Z" fill="#ed5564"/>
<path d="M 0 20.6 C 0.1 23.1 0.6 25.5 1.6 27.8 C 2.6 30.2 4 32.3 5.9 34.1 C 7.7 36 9.8 37.4 12.2 38.4 C 14.7 39.5 17.3 40 20 40 C 22.7 40 25.3 39.5 27.8 38.4 C 30.2 37.4 32.3 36 34.1 34.1 C 36 32.3 37.4 30.2 38.4 27.8 C 39.4 25.5 39.9 23.1 40 20.6 H 0 Z" fill="#e6e9ed"/>
<path d="M 39.9 22 C 40 21.3 40 20.7 40 20 C 40 19.3 40 18.5 39.9 17.8 C 38.9 17.9 37.5 18.1 35.7 18.3 C 32.2 18.7 26.8 19.2 20 19.2 C 13.2 19.2 7.8 18.7 4.3 18.3 C 2.5 18.1 1.1 17.9 0.1 17.8 C 0 18.5 0 19.3 0 20 C 0 20.7 0 21.3 0.1 22 C 3.3 22.5 10.5 23.3 20 23.3 C 29.5 23.3 36.7 22.5 39.9 22 Z" fill="#434a54"/>
<path d="M 24.2 20.8 C 24.2 23.1 22.3 25 20 25 C 17.7 25 15.8 23.1 15.8 20.8 C 15.8 18.5 17.7 16.7 20 16.7 C 22.3 16.7 24.2 18.5 24.2 20.8 Z" fill="#e6e9ed"/>
<path d="M 20 13.3 C 15.9 13.3 12.5 16.7 12.5 20.8 C 12.5 25 15.9 28.3 20 28.3 C 24.1 28.3 27.5 25 27.5 20.8 C 27.5 16.7 24.1 13.3 20 13.3 Z M 20 24.2 C 18.2 24.2 16.7 22.7 16.7 20.8 C 16.7 19 18.2 17.5 20 17.5 C 21.8 17.5 23.3 19 23.3 20.8 C 23.3 22.7 21.8 24.2 20 24.2 Z" fill="#434a54"/>
<path opacity="0.2" d="M 38.4 12.2 C 37.4 9.8 36 7.7 34.1 5.9 C 32.3 4 30.2 2.6 27.8 1.6 C 25.3 0.5 22.7 0 20 0 C 19.7 0 19.4 0 19.2 0 C 21.6 0.1 23.9 0.6 26.1 1.6 C 28.5 2.6 30.6 4 32.5 5.9 C 34.3 7.7 35.8 9.8 36.8 12.2 C 37.8 14.7 38.3 17.3 38.3 20 C 38.3 22.7 37.8 25.3 36.8 27.8 C 35.8 30.2 34.3 32.3 32.5 34.1 C 30.6 36 28.5 37.4 26.1 38.4 C 23.9 39.4 21.6 39.9 19.2 40 C 19.4 40 19.7 40 20 40 C 22.7 40 25.3 39.5 27.8 38.4 C 30.2 37.4 32.3 36 34.1 34.1 C 36 32.3 37.4 30.2 38.4 27.8 C 39.5 25.3 40 22.7 40 20 C 40 17.3 39.5 14.7 38.4 12.2 Z" fill="white"/>
<path opacity="0.1" d="M 1.6 27.8 C 2.6 30.2 4 32.3 5.9 34.1 C 7.7 36 9.8 37.4 12.2 38.4 C 14.7 39.5 17.3 40 20 40 C 20.3 40 20.6 40 20.8 40 C 18.4 39.9 16.1 39.4 13.9 38.4 C 11.5 37.4 9.4 36 7.5 34.1 C 5.7 32.3 4.2 30.2 3.2 27.8 C 2.2 25.3 1.7 22.7 1.7 20 C 1.7 17.3 2.2 14.7 3.2 12.2 C 4.2 9.8 5.7 7.7 7.5 5.9 C 9.4 4 11.5 2.6 13.9 1.6 C 16.1 0.6 18.4 0.1 20.8 0 C 20.6 0 20.3 0 20 0 C 17.3 0 14.7 0.5 12.2 1.6 C 9.8 2.6 7.7 4 5.9 5.9 C 4 7.7 2.6 9.8 1.6 12.2 C 0.5 14.7 0 17.3 0 20 C 0 22.7 0.5 25.3 1.6 27.8 Z" fill="black"/>
<text textLength="124.8" font-size="23.6" x="50.7" y="27.2" fill="rgb(255, 255, 255)">
        Pokemon Final
    </text>
</svg>
